<svg height="511pt" viewBox="0 -8 511.93787 511" width="511pt" xmlns="http://www.w3.org/2000/svg"><path d="m363.910156 369.023438c.003906 7.414062-4.367187 14.128906-11.148437 17.121093-6.785157 2.996094-14.691407 1.703125-20.167969-3.296875 4.472656 4.980469 5.945312 11.972656 3.855469 18.335938-2.089844 6.359375-7.417969 11.121094-13.976563 12.476562-6.554687 1.359375-13.335937-.886718-17.78125-5.894531 5.417969 4.566406 7.804688 11.800781 6.164063 18.695313-1.640625 6.898437-7.023438 12.285156-13.921875 13.921874-6.894532 1.640626-14.128906-.742187-18.695313-6.164062 5.417969 4.566406 7.804688 11.800781 6.164063 18.699219-1.640625 6.894531-7.023438 12.28125-13.921875 13.921875-6.894531 1.636718-14.128907-.746094-18.695313-6.167969l-5.71875-5.71875-5.71875-4.949219-91.648437-79.1875-74.496094-74.496094 70.488281-121.769531 2.21875-3.84375.082032-.167969 53.335937 53.332032c.847656-1.261719 1.816406-2.433594 2.902344-3.5 1.09375-1.109375 2.292969-2.109375 3.582031-2.984375 6.933594-5.207031 15.660156-7.417969 24.234375-6.144531 6.980469.941406 13.457031 4.148437 18.433594 9.128906 1.140625 1.144531 2.195312 2.371094 3.15625 3.671875l13.226562 39.167969 92.585938 92.585937c3.503906 3.507813 5.46875 8.265625 5.460937 13.226563zm0 0" fill="#bfa885"/><path d="m341.042969 352.554688c-.023438 4.953124-1.984375 9.699218-5.460938 13.226562-3.835937 3.851562-9.175781 5.820312-14.59375 5.375h-.085937c-4.160156-.273438-8.105469-1.957031-11.175782-4.777344 6.367188 7.496094 6.109376 18.574219-.597656 25.769532-3.945312 3.9375-9.492187 5.828124-15.019531 5.121093-4.65625-.542969-8.988281-2.648437-12.289063-5.972656 7.734376 7.324219 8.113282 19.511719.855469 27.304687-3.957031 3.867188-9.441406 5.746094-14.933593 5.121094-4.683594-.539062-9.042969-2.644531-12.375-5.972656 7.734374 7.324219 8.113281 19.511719.851562 27.304688-4.1875 4.105468-10.089844 5.945312-15.871094 4.949218-4.332031-.660156-8.339844-2.691406-11.433594-5.800781l-5.71875-5.71875-97.363281-84.136719-74.496093-74.582031 72.703124-125.527344.085938-.167969 20.566406 20.480469 32.765625 32.765625c.871094-1.214844 1.839844-2.359375 2.902344-3.414062l19.96875 19.96875c.847656-1.261719 1.816406-2.433594 2.902344-3.5 1.09375-1.109375 2.292969-2.109375 3.582031-2.984375 6.933594-5.207031 15.660156-7.417969 24.234375-6.144531l11.945313 35.5 92.589843 92.585937c3.476563 3.527344 5.4375 8.273437 5.460938 13.226563zm0 0" fill="#ffe0b2"/><path d="m331.988281 390.765625c-2.261719 0-4.433593-.898437-6.035156-2.5l-.722656-.726563-.15625-.152343-52-52c-2.15625-2.15625-3-5.300781-2.210938-8.246094.785157-2.945313 3.085938-5.246094 6.03125-6.035156 2.945313-.792969 6.089844.050781 8.246094 2.203125l52.90625 52.910156c2.441406 2.4375 3.167969 6.109375 1.847656 9.296875-1.320312 3.1875-4.429687 5.265625-7.878906 5.269531zm0 0" fill="#f09372"/><path d="m304.664062 416.324219c-2.261718 0-4.433593-.898438-6.03125-2.5l-51.996093-52.003907c-2.21875-2.140624-3.105469-5.3125-2.324219-8.296874.777344-2.984376 3.109375-5.3125 6.09375-6.09375 2.980469-.78125 6.15625.105468 8.296875 2.324218l51.996094 52.003906c2.4375 2.441407 3.167969 6.109376 1.847656 9.296876s-4.429687 5.269531-7.882813 5.269531zm0 0" fill="#f09372"/><path d="m278.253906 442.792969c-2.261718 0-4.433594-.898438-6.035156-2.5l-52-52c-3.234375-3.347657-3.1875-8.671875.105469-11.964844 3.289062-3.289063 8.613281-3.335937 11.960937-.101563l52.054688 52.050782c2.4375 2.441406 3.167968 6.113281 1.847656 9.300781s-4.433594 5.265625-7.882812 5.265625zm0 0" fill="#f09372"/><path d="m437.726562 289.664062-72.707031 72.703126-99.15625-99.15625-26.453125 26.453124-6.570312 6.65625c-7.320313 7.265626-19.132813 7.265626-26.453125 0-3.414063-3.5625-5.335938-8.292968-5.375-13.226562-.121094-4.964844 1.828125-9.753906 5.375-13.226562l56.234375-56.234376c7.304687-7.335937 17.675781-10.730468 27.902344-9.132812.953124.089844 1.894531.261719 2.816406.511719 5.867187 1.40625 11.234375 4.386719 15.53125 8.621093 1.089844 1.109376 2.089844 2.308594 2.988281 3.582032l6.910156-6.824219 15.273438-15.363281 4.523437-4.519532zm0 0" fill="#4e342e"/><path d="m417.84375 278.828125-72.707031 72.703125-83.796875-83.796875-15.359375-15.363281-26.453125 26.457031-6.65625 6.570313c-2.765625 2.800781-6.351563 4.652343-10.238282 5.289062-1.164062-2.359375-1.71875-4.96875-1.621093-7.59375-.121094-4.964844 1.828125-9.753906 5.375-13.226562l56.234375-56.234376c7.304687-7.335937 17.675781-10.730468 27.902344-9.132812.511718.597656 1.023437 1.28125 1.453124 1.878906l1.363282-1.367187c5.867187 1.40625 11.234375 4.386719 15.53125 8.621093 1.089844 1.109376 2.089844 2.308594 2.988281 3.582032l6.910156-6.824219 15.273438-15.363281zm0 0" fill="#795548"/><path d="m285.6875 277.980469c-8.890625.023437-17.546875-2.851563-24.664062-8.183594-3.769532-2.828125-4.53125-8.175781-1.707032-11.945313 2.828125-3.769531 8.179688-4.535156 11.949219-1.707031 9.628906 7.175781 23.058594 6.21875 31.574219-2.253906.742187-.722656 1.421875-1.511719 2.03125-2.355469 2.683594-3.820312 7.945312-4.769531 11.800781-2.132812 3.855469 2.640625 4.871094 7.890625 2.277344 11.777344-1.191407 1.710937-2.542969 3.308593-4.027344 4.769531-7.761719 7.730469-18.28125 12.058593-29.234375 12.03125zm0 0" fill="#7f5b53"/><g fill="#795548"><path d="m172.203125 388.847656c0 10.324219-8.371094 18.695313-18.699219 18.695313-10.324218 0-18.695312-8.371094-18.695312-18.695313 0-10.328125 8.371094-18.699218 18.695312-18.699218 10.328125 0 18.699219 8.371093 18.699219 18.699218zm0 0"/><path d="m198.644531 415.28125c0 10.328125-8.367187 18.699219-18.695312 18.699219-10.324219 0-18.695313-8.371094-18.695313-18.699219 0-10.324219 8.371094-18.695312 18.695313-18.695312 10.328125 0 18.695312 8.371093 18.695312 18.695312zm0 0"/><path d="m225.089844 441.726562c0 10.328126-8.371094 18.699219-18.695313 18.699219s-18.695312-8.371093-18.695312-18.699219c0-10.324218 8.371093-18.695312 18.695312-18.695312s18.695313 8.371094 18.695313 18.695312zm0 0"/><path d="m251.527344 468.171875c0 10.328125-8.371094 18.695313-18.695313 18.695313-10.328125 0-18.699219-8.367188-18.699219-18.695313 0-10.324219 8.371094-18.695313 18.699219-18.695313 10.324219 0 18.695313 8.371094 18.695313 18.695313zm0 0"/></g><path d="m498.398438 268.671875-28.757813 28.757813c-6.695313 6.601562-17.457031 6.601562-24.152344 0l-106.921875-106.921876 40.875-40.789062c3.203125-3.207031 7.546875-5.007812 12.074219-5.007812 4.53125 0 8.875 1.800781 12.074219 5.007812l94.808594 94.804688c3.203124 3.199218 5.003906 7.542968 5.003906 12.074218 0 4.527344-1.800782 8.871094-5.003906 12.074219zm0 0" fill="#283593"/><path d="m498.398438 268.671875-28.757813 28.757813c-3.105469 3.109374-7.300781 4.886718-11.691406 4.949218l-93.953125-93.953125 40.789062-40.789062c3.097656-3.132813 7.289063-4.9375 11.691406-5.035157l81.921876 81.921876c3.203124 3.199218 5.003906 7.542968 5.003906 12.074218 0 4.527344-1.800782 8.871094-5.003906 12.074219zm0 0" fill="#3f51b5"/><path d="m173.363281 197.164062-106.925781 106.921876c-.5.5-1.042969.957031-1.621094 1.363281-6.769531 5.324219-16.449218 4.738281-22.527344-1.363281l-28.757812-28.757813c-3.203125-3.203125-5.003906-7.546875-5.003906-12.074219 0-4.53125 1.800781-8.875 5.003906-12.074218l94.890625-94.890626c3.191406-3.195312 7.519531-4.992187 12.035156-4.992187 4.511719 0 8.839844 1.796875 12.03125 4.992187zm0 0" fill="#ad1457"/><path d="m153.308594 216.960938-88.492188 88.488281c-6.769531 5.324219-16.449218 4.738281-22.527344-1.363281l-28.757812-28.757813c-3.203125-3.203125-5.003906-7.546875-5.003906-12.074219 0-4.53125 1.800781-8.875 5.003906-12.074218l75.863281-75.863282c6.710938-5.902344 16.867188-5.527344 23.125.855469zm0 0" fill="#e91e63"/><path d="m439.492188 303.480469c9.996093 9.992187 26.199218 9.992187 36.199218 0l28.746094-28.742188c4.800781-4.800781 7.5-11.3125 7.5-18.101562 0-6.792969-2.699219-13.304688-7.5-18.105469l-94.847656-94.855469c-4.800782-4.800781-11.3125-7.5-18.101563-7.5-6.792969 0-13.304687 2.699219-18.105469 7.5l-40.8125 40.816407-19.832031 19.828124-.855469.855469c-16.320312-13.566406-40.277343-12.5-55.328124 2.457031l-4.105469 4.097657c-.53125-.4375-1.058594-1-1.585938-1.367188-14.566406-10.644531-34.347656-10.644531-48.914062 0-.546875.375-1.117188.980469-1.707031 1.417969l-47.214844-47.214844c-.253906-.195312-.519532-.371094-.792969-.53125l-13.714844-13.710937c-10.128906-9.675781-26.074219-9.675781-36.207031 0l-94.8125 94.8125c-4.800781 4.800781-7.5 11.3125-7.5 18.101562 0 6.792969 2.699219 13.304688 7.5 18.105469l28.738281 28.757812c10.011719 9.96875 26.199219 9.96875 36.207031 0l1.707032-1.707031 60.742187 60.714844c-.207031.1875-.445312.316406-.640625.511719-10.625 10.636718-10.625 27.871094 0 38.511718 4.925782 4.933594 11.570313 7.769532 18.542969 7.910157.289063 14.488281 11.964844 26.164062 26.453125 26.453125.28125 14.492187 11.960938 26.171875 26.453125 26.453125.292969 13.710937 10.761719 25.050781 24.40625 26.433593 13.640625 1.386719 26.175781-7.617187 29.21875-20.988281 2.261719.613281 4.59375.941407 6.9375.980469 7.046875.078125 13.835937-2.679688 18.828125-7.652344 4.996094-4.976562 7.78125-11.75 7.726562-18.800781 7.039063.082031 13.816407-2.679687 18.792969-7.660156 4.980469-4.976563 7.742188-11.753907 7.660157-18.792969 7 .078125 13.738281-2.648438 18.707031-7.574219 4.972656-4.929687 7.761719-11.640625 7.746093-18.640625 7.449219-.078125 14.535157-3.230468 19.578126-8.714844 5.042968-5.484374 7.59375-12.808593 7.046874-20.238281l65.5-65.503906zm-54.078126-147.703125c1.601563-1.605469 3.773438-2.503906 6.039063-2.503906s4.4375.898437 6.035156 2.503906l94.882813 94.828125c3.328125 3.332031 3.328125 8.726562 0 12.058593l-28.757813 28.757813c-3.371093 3.222656-8.683593 3.222656-12.054687 0l-100.890625-100.898437zm-337.066406 142.25-28.78125-28.757813c-1.601562-1.601562-2.503906-3.773437-2.503906-6.039062s.902344-4.4375 2.503906-6.035157l94.847656-94.839843c3.332032-3.332031 8.734376-3.332031 12.066407 0l34.789062 34.78125-93.113281 93.117187-7.757812 7.753906c-3.328126 3.324219-8.714844 3.332032-12.050782.019532zm98.015625 83.625c3.96875-3.96875 10.40625-3.964844 14.375.003906 3.96875 3.972656 3.964844 10.40625-.003906 14.375-4.023437 3.839844-10.351563 3.839844-14.371094 0-3.972656-3.964844-3.992187-10.390625-.042969-14.378906zm26.453125 26.453125c3.976563-3.957031 10.402344-3.957031 14.378906 0 1.90625 1.90625 2.976563 4.492187 2.976563 7.1875 0 2.695312-1.070313 5.277343-2.976563 7.183593-4.027343 3.835938-10.355468 3.835938-14.378906 0-3.976562-3.960937-4.003906-10.386718-.058594-14.378906zm26.453125 26.453125c3.976563-3.957032 10.402344-3.957032 14.378907 0 1.90625 1.90625 2.976562 4.492187 2.976562 7.1875 0 2.695312-1.070312 5.277344-2.976562 7.183594-4.023438 3.839843-10.355469 3.839843-14.378907 0-3.988281-3.957032-4.019531-10.394532-.070312-14.386719zm40.816407 40.816406c-3.972657 3.964844-10.40625 3.964844-14.371094-.003906-3.96875-3.96875-3.96875-10.402344 0-14.371094 3.964844-3.96875 10.398437-3.972656 14.371094-.003906 1.910156 1.902344 2.984374 4.488281 2.984374 7.183594 0 2.699218-1.074218 5.285156-2.984374 7.1875zm112.382812-99.15625c-4.027344 3.835938-10.355469 3.835938-14.378906 0l-52.90625-52.910156c-2.15625-2.152344-5.300782-2.996094-8.246094-2.203125-2.945312.789062-5.246094 3.089843-6.03125 6.035156-.789062 2.945313.054688 6.089844 2.210938 8.246094l52 52c2.1875 2.136719 3.46875 5.027343 3.585937 8.082031.144531 2.664062-.839844 5.261719-2.707031 7.167969-4.460938 3.941406-11.261719 3.558593-15.257813-.855469l-51.992187-52c-2.140625-2.21875-5.316406-3.109375-8.296875-2.328125-2.984375.78125-5.316407 3.113281-6.097657 6.09375-.777343 2.984375.109376 6.15625 2.328126 8.300781l51.953124 51.976563c2.179688 2.140625 3.460938 5.035156 3.582032 8.089843.144531 2.660157-.832032 5.261719-2.695313 7.167969-4.460937 3.945313-11.265625 3.5625-15.257812-.855469l-52.003907-52c-3.347656-3.234374-8.667968-3.1875-11.960937.101563-3.292969 3.292969-3.335937 8.617187-.105469 11.964844l52.003906 52c3.117188 2.441406 4.546876 6.457031 3.679688 10.316406-.871094 3.859375-3.886719 6.875-7.746094 7.742187-3.859375.863282-7.875-.570312-10.3125-3.6875l-5.761718-5.75c-4.929688-4.914062-11.566407-7.738281-18.523438-7.886718-.140625-6.972656-2.976562-13.621094-7.910156-18.550782-4.9375-4.914062-11.574219-7.734374-18.535156-7.886718-.140626-6.972656-2.972657-13.621094-7.910157-18.550782-4.941406-4.921874-11.585937-7.753906-18.558593-7.902343-.097657-7.351563-3.238282-14.339844-8.675782-19.292969-5.4375-4.949219-12.683594-7.425781-20.015625-6.835938l-65.707031-65.707031 87.246094-87.234375 20.804687 20.8125c.210938.15625.433594.304688.664063.433594.175781.207031.359375.398438.554687.582031.277344.132813.5625.25.855469.351563.503906.277344 1.035156.5 1.585938.664062.503906.148438 1.019531.25 1.542968.308594.292969 0 .554688.160156.855469.160156.296875 0 .527344-.128906.792969-.152344.53125-.050781 1.058594-.152343 1.570312-.308593.511719-.148438 1.011719-.347657 1.484375-.597657.511719-.257812.992188-.578124 1.433594-.945312.257813-.152344.507813-.316406.75-.496094.160156-.214844.304687-.433594.4375-.664062.179687-.214844.417969-.335938.578125-.566406.5625-.792969 1.195312-1.53125 1.894531-2.207032.808594-.828125 1.691407-1.578125 2.636719-2.238281 8.425781-6.191406 19.855469-6.328125 28.425781-.339844l-39.953125 39.960938c-10.585937 10.652343-10.585937 27.851562 0 38.503906 10.648438 10.585937 27.851563 10.585937 38.503906 0l27.015626-27.019531 86.527343 86.53125c3.945313 3.976562 3.933594 10.394531-.027343 14.359375zm12.578125-25.882812-.5625-.554688-45.808594-45.796875-26.589843-26.609375c8.628906-1.277344 16.621093-5.277344 22.820312-11.417969 1.484375-1.460937 2.832031-3.058593 4.027344-4.769531 2.589844-3.886719 1.574218-9.136719-2.277344-11.773438-3.855469-2.640624-9.117188-1.691406-11.804688 2.132813-.605468.839844-1.285156 1.628906-2.03125 2.355469-8.511718 8.46875-21.945312 9.425781-31.574218 2.25-2.488282-1.835938-5.78125-2.164063-8.582032-.851563-.742187.351563-1.429687.8125-2.039062 1.363281-.277344.164063-.546875.34375-.804688.539063l-33.023437 33.058594c-4.03125 3.8125-10.339844 3.8125-14.371094 0-1.941406-1.925781-3-4.570313-2.925781-7.304688-.027344-2.660156 1.03125-5.214843 2.925781-7.074219l44.65625-44.648437c.128907-.082031.28125-.109375.410157-.203125.96875-.675781 1.785156-1.546875 2.398437-2.558594l8.730469-8.730468c9.453125-9.421876 24.746094-9.421876 34.199218 0 .742188.734374 1.421876 1.527343 2.03125 2.371093.25.324219.519532.628907.8125.914063.085938.09375.109376.210937.195313.296875.085937.085937.109375.0625.160156.105469.714844.683593 1.542969 1.234374 2.449219 1.628906.1875.085937.367188.144531.566406.210937.910156.34375 1.875.53125 2.847656.554688.984376-.015625 1.957032-.207031 2.875-.5625.292969-.117188.578126-.25.855469-.398438.378907-.148437.742188-.324219 1.089844-.53125.230469-.152343.351563-.390625.554687-.5625.207032-.171875.472657-.246093.667969-.445312l20.675781-20.667969 87.089844 87.03125zm0 0"/><path d="m60.960938 256.632812c-2.679688-2.703124-6.722657-3.519531-10.238282-2.074218-3.519531 1.449218-5.8125 4.878906-5.8125 8.679687 0 3.804688 2.292969 7.234375 5.8125 8.679688 3.515625 1.449219 7.558594.632812 10.238282-2.070313 3.628906-3.65625 3.628906-9.558594 0-13.214844zm0 0"/><path d="m464.203125 263.246094c2.703125-2.679688 3.519531-6.722656 2.070313-10.242188-1.449219-3.515625-4.875-5.8125-8.679688-5.8125s-7.230469 2.296875-8.679688 5.8125c-1.449218 3.519532-.628906 7.5625 2.070313 10.242188 3.660156 3.625 9.558594 3.625 13.21875 0zm0 0"/><path d="m136.242188 119.9375c4.710937 0 8.53125-3.824219 8.53125-8.535156v-102.398438c0-4.714844-3.820313-8.535156-8.53125-8.535156-4.714844 0-8.535157 3.820312-8.535157 8.535156v42.664063h-42.664062v-42.664063c0-4.714844-3.820313-8.535156-8.535157-8.535156-4.710937 0-8.53125 3.820312-8.53125 8.535156v102.398438c0 4.710937 3.820313 8.535156 8.53125 8.535156 4.714844 0 8.535157-3.824219 8.535157-8.535156v-42.667969h42.664062v42.667969c0 4.710937 3.820313 8.535156 8.535157 8.535156zm0 0"/><path d="m349.574219 17.535156c4.714843 0 8.535156-3.820312 8.535156-8.53125 0-4.714844-3.820313-8.535156-8.535156-8.535156h-59.730469c-4.714844 0-8.535156 3.820312-8.535156 8.535156v102.398438c0 4.710937 3.820312 8.535156 8.535156 8.535156h59.730469c4.714843 0 8.535156-3.824219 8.535156-8.535156 0-4.714844-3.820313-8.535156-8.535156-8.535156h-51.199219v-34.132813h51.199219c4.714843 0 8.535156-3.820313 8.535156-8.53125 0-4.714844-3.820313-8.535156-8.535156-8.535156h-51.199219v-34.132813zm0 0"/><path d="m272.773438 34.601562c0-18.851562-15.28125-34.132812-34.132813-34.132812h-34.132813c-4.710937 0-8.53125 3.820312-8.53125 8.535156v102.398438c0 4.710937 3.820313 8.535156 8.53125 8.535156 4.714844 0 8.535157-3.824219 8.535157-8.535156v-42.667969h20.324219l23.238281 46.480469c1.363281 2.730468 4.078125 4.523437 7.121093 4.707031 3.042969.1875 5.957032-1.269531 7.636719-3.8125 1.683594-2.542969 1.878907-5.792969.515625-8.523437l-20.660156-41.316407c12.992188-5.148437 21.53125-17.695312 21.554688-31.667969zm-34.132813 17.066407h-25.597656v-34.132813h25.597656c9.425781 0 17.066406 7.640625 17.066406 17.066406 0 9.425782-7.640625 17.066407-17.066406 17.066407zm0 0"/><path d="m161.84375 9.003906v102.398438c0 4.710937 3.820312 8.535156 8.53125 8.535156 4.714844 0 8.535156-3.824219 8.535156-8.535156v-102.398438c0-4.714844-3.820312-8.535156-8.535156-8.535156-4.710938 0-8.53125 3.820312-8.53125 8.535156zm0 0"/><path d="m375.175781.46875c-4.714843 0-8.535156 3.820312-8.535156 8.535156v102.398438c0 4.710937 3.820313 8.535156 8.535156 8.535156h25.597657c23.554687-.03125 42.640624-19.117188 42.667968-42.667969v-34.132812c-.027344-23.554688-19.113281-42.640625-42.667968-42.667969zm51.199219 42.667969v34.132812c0 14.136719-11.460938 25.597657-25.601562 25.597657h-17.066407v-85.332032h17.066407c14.140624 0 25.601562 11.460938 25.601562 25.601563zm0 0"/></svg>